<svg width="1200" height="900" viewBox="0 0 1200 900" fill="none" xmlns="http://www.w3.org/2000/svg">
<rect width="1200" height="900" fill="#F5F5F4"/>
<rect x="88" y="88" width="1024" height="724" rx="28" fill="#FAFAF9" stroke="#D6D3D1" stroke-width="8"/>
<path d="M264 220H936V680H264V220Z" stroke="#A8A29E" stroke-width="12"/>
<path d="M264 450H936" stroke="#D6D3D1" stroke-width="10"/>
<path d="M600 220V680" stroke="#D6D3D1" stroke-width="10"/>
<path d="M420 220V450" stroke="#D6D3D1" stroke-width="10"/>
<path d="M780 450V680" stroke="#D6D3D1" stroke-width="10"/>
<rect x="300" y="256" width="240" height="158" rx="18" fill="#E7E5E4"/>
<rect x="660" y="256" width="240" height="158" rx="18" fill="#E7E5E4"/>
<rect x="300" y="486" width="240" height="158" rx="18" fill="#E7E5E4"/>
<rect x="660" y="486" width="240" height="158" rx="18" fill="#E7E5E4"/>
<circle cx="600" cy="450" r="38" fill="#D6D3D1"/>
<path d="M163 760C163 737.909 180.909 720 203 720H997C1019.09 720 1037 737.909 1037 760V764C1037 786.091 1019.09 804 997 804H203C180.909 804 163 786.091 163 764V760Z" fill="#111827"/>
<text x="600" y="773" text-anchor="middle" fill="#FAFAF9" font-family="Arial, Helvetica, sans-serif" font-size="34" letter-spacing="4">FLOORPLAN PREVIEW</text>
</svg>
